HIERARCHY
ROOT Hips
{
	OFFSET 0.000000 95.729000 0.000000
	CHANNELS 6 Xposition Yposition Zposition Yrotation Xrotation Zrotation
	JOINT RightUpLeg
	{
		OFFSET -9.625000 -1.639000 0.000000
		CHANNELS 3 Yrotation Xrotation Zrotation
		JOINT RightLeg
		{
			OFFSET 0.000000 -41.481000 0.000000
			CHANNELS 3 Yrotation Xrotation Zrotation
			JOINT RightFoot
			{
				OFFSET 0.000000 -43.120000 0.000000
				CHANNELS 3 Yrotation Xrotation Zrotation
				End Site
				{
					OFFSET 0.000000 -7.850000 17.850000
				}
			}
		}
	}
	JOINT LeftUpLeg
	{
		OFFSET 9.625000 -1.639000 0.000000
		CHANNELS 3 Yrotation Xrotation Zrotation
		JOINT LeftLeg
		{
			OFFSET 0.000000 -43.120000 0.000000
			CHANNELS 3 Yrotation Xrotation Zrotation
			JOINT LeftFoot
			{
				OFFSET 0.000000 -43.120000 0.000000
				CHANNELS 3 Yrotation Xrotation Zrotation
				End Site
				{
					OFFSET 0.000000 -7.850000 17.850000
				}
			}
		}
	}
	JOINT Spine
	{
		OFFSET 0.000000 16.395000 0.000000
		CHANNELS 3 Yrotation Xrotation Zrotation
		JOINT Spine1
		{
			OFFSET 0.000000 10.023000 0.000000
			CHANNELS 3 Yrotation Xrotation Zrotation
			JOINT Spine2
			{
				OFFSET 0.000000 10.437000 0.000000
				CHANNELS 3 Yrotation Xrotation Zrotation
				JOINT Spine3
				{
					OFFSET 0.000000 10.023000 0.000000
					CHANNELS 3 Yrotation Xrotation Zrotation
					JOINT Neck
					{
						OFFSET 0.000000 10.713000 0.000000
						CHANNELS 3 Yrotation Xrotation Zrotation
						JOINT Head
						{
							OFFSET 0.000000 9.720000 0.000000
							CHANNELS 3 Yrotation Xrotation Zrotation
							End Site
							{
								OFFSET 0.000000 16.450000 0.000000
							}
						}
					}
					JOINT RightShoulder
					{
						OFFSET -3.275000 7.142000 0.000000
						CHANNELS 3 Yrotation Xrotation Zrotation
						JOINT RightArm
						{
							OFFSET -13.100000 0.000000 0.000000
							CHANNELS 3 Yrotation Xrotation Zrotation
							JOINT RightForeArm
							{
								OFFSET -27.250000 0.000000 0.000000
								CHANNELS 3 Yrotation Xrotation Zrotation
								JOINT RightHand
								{
									OFFSET -26.750000 0.000000 0.000000
									CHANNELS 3 Yrotation Xrotation Zrotation
									End Site
									{
										OFFSET -3.479000 0.532000 0.778000
									}
								}
							}
						}
					}
					JOINT LeftShoulder
					{
						OFFSET 3.275000 7.142000 0.000000
						CHANNELS 3 Yrotation Xrotation Zrotation
						JOINT LeftArm
						{
							OFFSET 13.100000 0.000000 0.000000
							CHANNELS 3 Yrotation Xrotation Zrotation
							JOINT LeftForeArm
							{
								OFFSET 27.250000 0.000000 0.000000
								CHANNELS 3 Yrotation Xrotation Zrotation
								JOINT LeftHand
								{
									OFFSET 26.750000 0.000000 0.000000
									CHANNELS 3 Yrotation Xrotation Zrotation
									End Site
									{
										OFFSET 3.479000 0.532000 0.778000
									}
								}
							}
						}
					}
				}
			}
		}
	}
}
MOTION
Frames: 29
Frame Time: 0.041667
29.39 95.94 17.23 -109.81 2.54 -4.87 -2.03 -7.11 -5.58 0.0 32.71 0.0 -8.18 -8.89 13.17 21.1 -20.41 2.01 -0.0 25.51 -0.0 10.22 -15.34 -4.96 24.31 -3.98 -1.01 6.17 -0.77 -0.05 9.69 -1.09 -0.15 0.64 0.34 0.09 0.65 0.34 0.09 11.9 5.43 2.1 -14.86 0.63 7.13 22.83 -2.42 72.79 36.08 18.33 2.01 2.29 12.17 1.66 -7.34 -4.76 -3.36 -30.27 6.53 -76.59 -6.82 4.98 -5.95 -3.6 49.52 21.43
29.63 95.93 17.08 -110.24 2.51 -4.86 -2.11 -6.98 -5.62 0.0 32.08 0.0 -7.58 -8.04 13.77 21.19 -20.52 2.13 -0.0 25.55 -0.0 10.36 -15.33 -5.02 24.58 -3.98 -1.02 6.23 -0.77 -0.05 9.79 -1.09 -0.15 0.63 0.35 0.09 0.64 0.35 0.09 11.73 5.5 2.16 -15.43 0.74 7.15 22.65 -2.33 72.74 36.15 18.36 2.14 2.03 12.15 1.65 -7.83 -4.65 -3.3 -30.96 6.7 -76.57 -6.85 3.76 -5.91 -3.59 49.89 21.46
29.9 95.91 16.95 -110.77 2.51 -4.73 -2.0 -7.13 -5.78 0.0 31.89 0.0 -6.77 -7.12 14.24 21.44 -20.58 2.1 -0.0 25.5 -0.0 10.51 -15.29 -5.06 24.91 -3.98 -1.11 6.32 -0.76 -0.07 9.91 -1.07 -0.18 0.62 0.35 0.09 0.63 0.35 0.09 11.56 5.58 2.21 -16.0 0.85 7.15 22.43 -2.22 72.7 35.95 18.29 2.08 2.03 12.26 1.71 -8.28 -4.54 -3.24 -30.92 6.69 -76.52 -6.86 3.33 -5.89 -3.58 50.34 21.47
30.19 95.89 16.81 -112.97 2.36 -4.46 -0.15 -7.51 -6.16 -0.0 31.84 -0.0 -6.36 -7.16 14.29 23.49 -20.39 1.93 0.0 25.46 0.0 10.59 -15.41 -5.19 26.28 -3.94 -1.28 6.68 -0.73 -0.1 10.41 -1.0 -0.23 0.61 0.36 0.1 0.62 0.35 0.1 11.39 5.65 2.27 -16.59 0.98 7.14 22.2 -2.11 72.66 35.87 18.28 2.1 1.9 12.32 1.7 -8.73 -4.43 -3.2 -30.9 6.68 -76.47 -6.96 3.25 -5.9 -3.49 50.43 21.52
30.47 95.87 16.67 -113.45 2.36 -4.34 -0.2 -7.0 -6.11 0.0 30.38 0.0 -7.11 -7.36 13.45 23.65 -20.48 1.94 -0.0 25.47 0.0 10.75 -15.38 -5.24 26.58 -3.93 -1.36 6.76 -0.72 -0.11 10.52 -0.98 -0.26 0.61 0.36 0.1 0.61 0.36 0.1 11.22 5.72 2.31 -17.18 1.13 7.13 21.95 -1.99 72.63 35.62 18.21 2.02 1.91 12.43 1.7 -9.17 -4.32 -3.17 -30.9 6.68 -76.4 -7.04 3.17 -5.9 -3.42 50.52 21.53
30.76 95.84 16.53 -113.93 2.35 -4.22 0.09 -7.04 -6.04 0.0 30.17 0.0 -7.54 -7.56 12.86 23.79 -20.58 1.94 -0.0 25.48 -0.0 10.91 -15.34 -5.28 26.88 -3.91 -1.44 6.84 -0.72 -0.13 10.63 -0.96 -0.28 0.59 0.37 0.1 0.6 0.36 0.1 11.04 5.81 2.36 -17.79 1.28 7.13 21.71 -1.89 72.6 35.37 18.18 1.97 2.74 13.1 2.03 -9.62 -4.21 -3.15 -30.91 6.68 -76.31 -7.29 4.0 -5.95 -3.17 49.7 21.69
31.06 95.81 16.38 -114.41 2.36 -4.07 0.47 -7.05 -6.06 0.0 29.93 0.0 -8.05 -8.06 12.89 23.98 -20.66 1.9 -0.0 25.45 -0.0 11.07 -15.3 -5.31 27.18 -3.9 -1.53 6.93 -0.71 -0.15 10.74 -0.94 -0.32 0.58 0.37 0.1 0.59 0.37 0.1 10.87 5.9 2.42 -18.42 1.42 7.11 21.49 -1.81 72.57 34.97 18.08 1.86 3.72 13.84 2.41 -10.06 -4.1 -3.15 -30.93 6.69 -76.22 -7.36 3.98 -5.98 -3.06 49.73 21.74
31.37 95.78 16.25 -114.88 2.37 -3.94 0.68 -6.89 -6.01 0.0 29.33 -0.0 -8.56 -8.37 12.83 24.15 -20.78 1.88 0.0 25.45 0.0 11.23 -15.26 -5.32 27.47 -3.89 -1.62 7.0 -0.7 -0.17 10.84 -0.91 -0.34 0.57 0.38 0.11 0.58 0.37 0.11 10.7 5.99 2.46 -18.41 1.41 7.11 20.7 -1.71 72.57 34.53 17.99 1.74 3.65 13.85 2.27 -10.51 -3.99 -3.14 -30.95 6.68 -76.13 -7.38 3.95 -6.0 -2.99 49.77 21.78
31.69 95.75 16.12 -115.35 2.38 -3.81 0.94 -6.81 -6.0 -0.0 28.99 -0.0 -8.84 -8.75 12.63 24.37 -20.88 1.84 0.0 25.41 0.0 11.39 -15.21 -5.32 27.77 -3.88 -1.71 7.08 -0.69 -0.19 10.95 -0.89 -0.38 0.57 0.38 0.11 0.57 0.38 0.11 10.52 6.09 2.5 -18.4 1.41 7.11 19.8 -1.63 72.56 33.9 17.82 1.59 3.85 14.04 2.21 -10.96 -3.89 -3.13 -30.97 6.69 -76.04 -7.39 3.91 -6.02 -2.89 49.79 21.84
32.01 95.72 15.99 -115.81 2.39 -3.68 1.25 -7.09 -6.06 0.0 29.27 0.0 -8.69 -8.82 12.49 24.59 -21.0 1.83 -0.0 25.42 -0.0 11.55 -15.16 -5.32 25.35 -3.29 -1.08 6.45 -0.6 -0.09 10.09 -0.82 -0.21 0.77 0.37 0.05 0.77 0.37 0.05 14.18 5.85 1.59 -14.9 0.74 6.39 19.59 -1.66 72.53 33.0 17.47 1.33 1.97 12.7 1.14 -7.2 -4.5 -3.92 -30.99 6.69 -75.97 -7.38 3.88 -6.05 -2.85 49.33 21.94
32.32 95.69 15.86 -116.28 2.4 -3.55 1.83 -7.36 -6.1 -0.0 29.52 0.0 -8.8 -8.84 12.41 24.83 -21.09 1.8 0.0 25.38 0.0 11.69 -15.11 -5.33 25.33 -3.22 -1.1 6.44 -0.59 -0.1 10.08 -0.79 -0.22 0.78 0.38 0.05 0.79 0.37 0.05 14.46 5.92 1.54 -15.07 0.76 6.3 19.38 -1.69 72.51 32.09 17.13 1.09 2.02 12.79 1.0 -7.18 -4.49 -3.97 -31.01 6.7 -75.91 -7.34 3.85 -6.07 -2.83 48.86 22.05
32.64 95.66 15.73 -116.73 2.39 -3.44 2.25 -7.3 -6.02 0.0 29.12 0.0 -9.19 -9.15 12.19 25.03 -21.19 1.8 0.0 25.35 0.0 11.82 -15.05 -5.33 24.54 -3.01 -0.91 6.24 -0.55 -0.07 9.8 -0.76 -0.16 0.86 0.38 0.03 0.86 0.37 0.03 15.76 5.95 1.25 -15.51 0.74 5.96 20.6 -1.74 72.53 32.49 17.82 1.6 0.61 11.79 0.46 -6.06 -4.64 -4.26 -30.94 6.7 -75.87 -7.29 3.82 -6.08 -2.76 48.88 22.12
32.97 95.63 15.6 -117.19 2.39 -3.3 2.71 -7.26 -5.97 -0.0 28.77 0.0 -9.48 -9.48 12.03 25.28 -21.27 1.78 -0.0 25.3 0.0 11.94 -14.99 -5.33 24.5 -2.93 -0.92 6.23 -0.54 -0.08 9.78 -0.73 -0.17 0.87 0.38 0.02 0.87 0.38 0.02 16.02 6.04 1.2 -15.69 0.7 5.86 20.39 -1.73 72.5 32.93 18.52 2.15 -0.91 10.74 -0.08 -6.05 -4.65 -4.31 -30.91 6.72 -75.86 -7.24 3.81 -6.1 -2.66 48.89 22.21
33.3 95.6 15.48 -117.6 2.38 -3.23 3.06 -6.49 -5.81 0.0 27.06 -0.0 -10.1 -10.17 11.95 25.46 -21.41 1.82 0.0 25.32 0.0 12.04 -14.94 -5.33 24.4 -2.85 -0.87 6.2 -0.52 -0.07 9.75 -0.71 -0.16 0.89 0.39 0.02 0.89 0.38 0.02 16.32 6.12 1.13 -15.81 0.65 5.73 20.16 -1.74 72.48 31.98 18.17 1.93 -1.39 10.67 -0.35 -6.02 -4.66 -4.38 -30.87 6.73 -75.86 -7.16 3.81 -6.1 -2.29 49.85 22.24
33.63 95.56 15.35 -118.01 2.36 -3.14 3.58 -6.44 -5.71 -0.0 26.82 -0.0 -10.38 -10.49 11.99 25.66 -21.53 1.86 0.0 25.32 0.0 12.13 -14.9 -5.33 24.29 -2.77 -0.82 6.17 -0.51 -0.06 9.71 -0.7 -0.15 0.9 0.39 0.01 0.9 0.39 0.01 16.6 6.24 1.07 -15.92 0.59 5.62 19.89 -1.72 72.42 30.93 17.78 1.66 -1.69 10.78 -0.56 -5.97 -4.67 -4.46 -30.83 6.73 -75.87 -7.08 3.8 -6.11 -2.18 49.84 22.31
33.98 94.73 15.2 -118.41 2.35 -3.06 4.04 -4.41 -5.51 0.0 22.31 0.0 -10.71 -8.57 11.59 25.77 -23.92 1.94 -0.0 29.74 0.0 12.34 -16.95 -5.82 24.54 -2.75 -0.87 6.24 -0.5 -0.07 9.8 -0.68 -0.17 0.89 0.4 0.02 0.89 0.4 0.02 16.36 6.37 1.15 -16.58 0.61 5.62 19.6 -1.71 72.34 26.6 15.01 -0.36 3.12 14.35 0.76 -6.5 -4.62 -4.4 -30.79 6.72 -75.88 -7.0 3.81 -6.13 -2.05 49.82 22.35
34.32 94.56 15.05 -118.79 2.34 -2.98 4.4 -4.11 -5.42 0.0 21.4 0.0 -10.81 -8.5 11.58 25.93 -24.38 2.0 0.0 30.37 0.0 12.43 -17.19 -5.89 24.78 -2.74 -0.92 6.3 -0.49 -0.08 9.89 -0.66 -0.18 0.87 0.41 0.02 0.88 0.41 0.02 16.11 6.5 1.24 -17.26 0.63 5.64 19.28 -1.69 72.21 25.36 14.57 -0.68 4.88 15.54 1.33 -7.02 -4.57 -4.33 -30.75 6.71 -75.9 -6.93 3.85 -6.14 -1.98 49.81 22.31
34.66 94.52 14.92 -119.16 2.33 -2.9 4.85 -4.17 -5.35 0.0 21.22 0.0 -10.95 -8.76 11.72 26.09 -24.53 2.04 -0.0 30.39 0.0 12.45 -17.14 -5.88 23.95 -2.54 -0.65 6.08 -0.47 -0.03 9.59 -0.65 -0.1 0.94 0.42 -0.0 0.94 0.42 -0.0 17.34 6.65 0.92 -16.3 0.41 5.3 18.93 -1.7 72.06 24.1 14.13 -1.0 4.79 15.77 1.18 -5.88 -4.7 -4.68 -30.72 6.69 -75.93 -6.87 3.92 -6.15 -1.94 49.81 22.18
34.98 94.51 14.8 -119.53 2.33 -2.82 5.21 -4.32 -5.31 0.0 21.21 0.0 -11.02 -9.12 11.89 26.2 -24.6 2.08 0.0 30.27 -0.0 12.4 -17.01 -5.85 23.84 -2.48 -0.59 6.06 -0.45 -0.02 9.55 -0.63 -0.08 0.95 0.43 -0.01 0.96 0.42 -0.01 17.57 6.81 0.86 -16.46 0.36 5.2 18.53 -1.71 71.89 22.83 13.68 -1.32 4.67 16.04 1.0 -5.86 -4.7 -4.75 -30.71 6.67 -75.98 -6.79 4.02 -6.14 -1.96 49.88 21.97
35.31 94.49 14.68 -119.87 2.32 -2.78 5.37 -4.49 -5.24 -0.0 21.24 -0.0 -10.91 -9.48 12.02 26.21 -24.69 2.18 0.0 30.2 0.0 12.28 -16.96 -5.88 23.72 -2.42 -0.51 6.02 -0.44 -0.0 9.5 -0.63 -0.05 0.96 0.44 -0.01 0.97 0.43 -0.01 17.76 6.97 0.83 -16.6 0.33 5.09 18.08 -1.75 71.71 21.37 13.08 -1.75 0.47 14.24 -1.0 -5.85 -4.71 -4.83 -30.72 6.64 -76.02 -6.77 4.15 -6.16 -1.99 49.99 21.7
35.62 94.48 14.54 -120.21 2.3 -2.72 5.61 -4.64 -5.17 -0.0 21.25 -0.0 -10.86 -9.83 12.13 26.21 -24.76 2.28 -0.0 30.11 -0.0 12.15 -16.94 -5.93 23.64 -2.36 -0.47 6.0 -0.44 0.0 9.47 -0.61 -0.04 0.97 0.45 -0.01 0.97 0.44 -0.01 17.91 7.12 0.84 -16.82 0.33 5.03 17.57 -1.78 71.52 20.12 12.6 -2.06 0.22 14.43 -1.37 -5.9 -4.7 -4.84 -30.74 6.62 -76.07 -6.77 4.32 -6.2 -2.04 50.1 21.38
35.94 94.47 14.4 -120.55 2.28 -2.7 5.83 -4.73 -5.07 0.0 21.19 0.0 -10.8 -10.19 12.22 26.19 -24.84 2.42 -0.0 30.04 -0.0 12.04 -16.91 -5.98 23.85 -2.35 -0.48 6.06 -0.43 -0.0 9.55 -0.6 -0.05 0.95 0.46 -0.0 0.96 0.45 -0.01 17.63 7.26 0.96 -17.5 0.38 5.08 17.03 -1.85 71.29 20.59 13.64 -1.42 -1.88 13.09 -2.29 -6.46 -4.66 -4.75 -30.72 6.6 -76.11 -6.71 3.78 -6.14 -2.24 50.97 20.83
36.27 94.46 14.25 -120.91 2.27 -2.65 6.12 -4.92 -4.97 -0.0 21.26 0.0 -10.75 -10.54 12.24 26.23 -24.91 2.54 -0.0 29.94 -0.0 11.96 -16.83 -5.99 24.07 -2.34 -0.51 6.12 -0.43 -0.01 9.63 -0.6 -0.06 0.94 0.47 0.0 0.94 0.46 0.0 17.36 7.39 1.07 -18.19 0.45 5.12 16.48 -1.93 71.03 21.08 14.69 -0.73 -3.94 11.63 -3.17 -6.95 -4.62 -4.67 -30.77 6.58 -76.14 -6.66 3.22 -6.1 -2.46 51.88 20.27
36.6 94.45 14.09 -121.23 2.25 -2.63 6.41 -5.08 -4.84 0.0 21.33 -0.0 -10.73 -10.89 12.23 26.23 -24.97 2.68 0.0 29.79 0.0 11.91 -16.74 -5.96 24.27 -2.34 -0.53 6.17 -0.42 -0.01 9.71 -0.59 -0.06 0.92 0.48 0.01 0.93 0.47 0.01 17.1 7.52 1.18 -18.88 0.51 5.16 15.91 -2.03 70.75 19.83 14.23 -0.99 -4.39 11.39 -3.7 -6.94 -4.63 -4.67 -31.33 6.68 -76.18 -6.68 3.46 -6.15 -2.33 51.09 20.47
36.92 94.45 13.92 -121.6 2.23 -2.59 6.78 -5.25 -4.71 0.0 21.42 -0.0 -10.75 -11.24 12.19 26.29 -25.01 2.82 -0.0 29.64 -0.0 11.92 -16.62 -5.94 24.49 -2.32 -0.55 6.23 -0.42 -0.02 9.79 -0.58 -0.07 0.91 0.49 0.01 0.91 0.48 0.01 16.85 7.64 1.28 -19.59 0.56 5.2 15.33 -2.13 70.47 18.59 13.7 -1.24 -4.59 11.32 -4.14 -6.92 -4.64 -4.68 -31.89 6.79 -76.21 -6.7 3.73 -6.21 -2.22 50.25 20.66
37.23 94.43 13.75 -121.98 2.19 -2.57 7.21 -5.44 -4.56 0.0 21.59 0.0 -10.83 -11.6 12.11 26.47 -25.08 2.99 0.0 29.55 0.0 12.07 -16.37 -6.09 24.73 -2.3 -0.56 6.29 -0.41 -0.02 9.88 -0.57 -0.07 0.9 0.49 0.02 0.9 0.49 0.02 16.61 7.74 1.38 -19.58 0.55 5.2 13.89 -2.24 70.2 14.17 9.47 -3.14 -1.2 14.9 -3.68 -7.42 -4.59 -4.6 -31.94 6.8 -76.23 -7.06 5.96 -6.47 -1.98 48.41 20.66
37.55 94.41 13.58 -122.35 2.14 -2.56 7.66 -5.64 -4.39 -0.0 21.78 -0.0 -10.89 -11.96 12.04 26.59 -25.16 3.19 -0.0 29.46 -0.0 12.26 -16.12 -6.24 24.96 -2.28 -0.56 6.35 -0.41 -0.02 9.96 -0.56 -0.07 0.89 0.5 0.02 0.89 0.5 0.02 16.41 7.84 1.46 -19.57 0.54 5.19 12.56 -2.32 69.93 13.09 8.65 -3.29 -1.39 14.97 -4.14 -7.91 -4.54 -4.53 -31.99 6.83 -76.23 -7.2 6.4 -6.5 -2.05 48.39 20.25
37.88 94.41 13.41 -122.73 2.1 -2.55 8.13 -5.81 -4.21 0.0 21.89 -0.0 -10.97 -12.25 11.91 26.63 -25.17 3.38 0.0 29.27 0.0 12.33 -15.95 -6.23 23.2 -1.92 -0.15 5.89 -0.35 0.06 9.31 -0.52 0.06 1.03 0.5 -0.02 1.03 0.49 -0.02 19.06 7.82 0.92 -17.19 0.13 4.76 11.94 -2.42 69.57 12.05 7.8 -3.38 -1.57 15.03 -4.6 -6.23 -4.65 -4.92 -31.08 6.61 -76.08 -7.4 6.88 -6.56 -2.59 50.54 18.79
38.22 94.4 13.26 -123.12 2.05 -2.54 8.59 -5.99 -4.04 0.0 22.02 -0.0 -11.06 -12.51 11.76 26.69 -25.19 3.56 -0.0 29.09 -0.0 12.42 -15.79 -6.22 22.44 -1.68 0.5 5.69 -0.33 0.2 9.03 -0.53 0.29 1.1 0.51 -0.07 1.1 0.51 -0.07 20.25 8.22 0.12 -16.38 -0.09 3.86 11.29 -2.51 69.19 11.09 6.97 -3.44 -1.73 15.08 -5.04 -5.07 -4.63 -5.85 -31.14 6.62 -76.01 -7.6 7.36 -6.61 -2.67 50.58 18.46
